# xmcd
#
# Track frame offsets: 
#        150
#        13320
#        28682
#        37037
#        50561
#        56461
#        65095
#        78033
#        90088
#        105601
#        119382
#        132014
#        146443
#        160750
#        174688
#        183688
#        195043
#
# Disc length: 2745 seconds
#
# Revision: 0
# Processed by: cddbd v1.5.2PL0 Copyright (c) Steve Scherf et al.
# Submitted via: ExactAudioCopyFreeDBPlugin 1.0
#
DISCID=dc0ab711
DTITLE=Mountain Top Bluegrass - Best of Mountain Top Bluegrass
DYEAR=2006
DGENRE=Bluegrass
TTITLE0=Day by Day
TTITLE1=Peace in The Valley
TTITLE2=Old Time Religion
TTITLE3=Set it Free
TTITLE4=Angel Band
TTITLE5=Peace Like A River
TTITLE6=Wonderful Words of Life
TTITLE7=Balm in Gilead
TTITLE8=Harley's Angels
TTITLE9=Life's Railway
TTITLE10=Softly and Tenderly
TTITLE11=Home
TTITLE12=Rock of Ages
TTITLE13=Believe
TTITLE14=At The Cross
TTITLE15=Nothing But The Blood
TTITLE16=Oh How I Love Jesus
EXTD=
EXTT0=
EXTT1=
EXTT2=
EXTT3=
EXTT4=
EXTT5=
EXTT6=
EXTT7=
EXTT8=
EXTT9=
EXTT10=
EXTT11=
EXTT12=
EXTT13=
EXTT14=
EXTT15=
EXTT16=
PLAYORDER=
